<?xml version="1.0" encoding="UTF-8" ?>
<!DOCTYPE svg PUBLIC "-//W3C//DTD SVG 1.1//EN" "http://www.w3.org/Graphics/SVG/1.1/DTD/svg11.dtd">
<svg width="1024pt" height="1024pt" viewBox="0 0 1024 1024" version="1.1" xmlns="http://www.w3.org/2000/svg">
<g id="#ffffffff">
<path fill="#ffffff" opacity="1.00" d=" M 373.41 157.72 C 377.23 156.99 381.12 156.75 385.00 156.81 C 482.68 156.86 580.37 156.74 678.05 156.85 C 693.20 157.10 705.13 173.29 701.11 187.83 C 698.87 198.47 688.86 206.68 677.99 206.82 C 581.31 206.82 484.63 206.82 387.96 206.81 C 382.78 206.08 378.49 210.91 379.42 215.95 C 379.49 419.96 379.41 623.97 379.47 827.98 C 379.77 835.73 376.03 843.23 370.44 848.43 C 363.26 854.30 352.57 855.90 344.19 851.75 C 335.01 847.83 329.72 837.71 329.75 828.00 C 329.69 627.00 329.75 426.00 329.73 225.00 C 329.81 215.91 329.14 206.66 331.42 197.76 C 335.89 177.69 353.12 161.19 373.41 157.72 Z" />
<path fill="#ffffff" opacity="1.00" d=" M 418.39 237.44 C 433.57 236.87 448.80 237.37 464.00 237.19 C 560.32 237.21 656.65 237.19 752.97 237.22 C 759.35 237.57 765.23 240.89 769.69 245.33 C 775.71 252.07 777.40 262.12 774.73 270.65 C 771.70 280.27 762.14 287.41 752.01 287.30 C 642.35 287.29 532.68 287.31 423.02 287.28 C 414.94 287.33 406.43 284.01 401.92 277.04 C 396.61 270.22 395.54 260.64 398.70 252.67 C 402.16 244.75 409.55 238.20 418.39 237.44 Z" />
<path fill="#ffffff" opacity="1.00" d=" M 270.35 253.43 C 279.51 251.71 289.34 255.66 294.70 263.30 C 298.04 267.77 299.60 273.40 299.59 278.94 C 299.62 434.32 299.57 589.69 299.63 745.07 C 300.00 758.32 288.69 771.54 274.98 770.93 C 261.70 771.47 249.72 759.26 250.16 746.06 C 250.10 590.02 250.09 433.97 250.19 277.93 C 249.80 266.26 258.98 255.47 270.35 253.43 Z" />
<path fill="#ffffff" opacity="1.00" d=" M 418.36 318.41 C 433.22 317.75 448.13 318.31 463.00 318.13 C 575.34 318.14 687.69 318.12 800.03 318.13 C 816.11 318.56 831.45 327.24 841.05 339.99 C 856.00 359.15 857.90 387.49 845.43 408.39 C 840.84 416.52 833.60 422.58 827.08 429.08 C 744.20 511.54 661.60 594.27 578.73 676.74 C 577.19 678.34 575.58 679.97 574.69 682.04 C 574.48 685.35 577.24 687.54 579.26 689.73 C 617.94 728.05 656.14 766.86 694.75 805.26 C 701.58 812.40 709.07 818.95 715.35 826.60 C 723.09 836.20 721.64 851.38 712.63 859.65 C 705.35 867.23 692.86 868.49 683.98 863.03 C 678.24 859.97 674.51 854.50 669.83 850.18 C 625.47 805.86 581.18 761.48 536.63 717.37 C 528.23 707.74 523.80 694.73 524.09 681.98 C 523.88 668.06 529.56 654.18 539.11 644.11 C 624.63 558.63 710.12 473.12 795.59 387.60 C 797.42 385.77 799.35 384.02 800.90 381.94 C 803.65 378.14 802.58 371.95 798.33 369.71 C 795.81 368.20 792.79 368.61 790.00 368.55 C 667.31 368.59 544.63 368.57 421.94 368.57 C 413.38 368.55 404.83 363.93 400.59 356.42 C 397.28 351.37 396.18 345.06 397.04 339.14 C 398.61 328.59 407.79 319.72 418.36 318.41 Z" />
<path fill="#ffffff" opacity="1.00" d=" M 190.31 333.18 C 196.93 331.92 204.11 333.37 209.46 337.55 C 215.82 342.24 219.56 350.06 219.67 357.93 C 219.71 462.30 219.68 566.68 219.65 671.05 C 220.23 681.61 213.56 692.03 203.58 695.67 C 195.52 698.78 185.91 697.20 179.15 691.86 C 173.16 687.24 169.97 679.54 170.16 672.06 C 170.17 567.35 170.12 462.64 170.20 357.93 C 169.71 346.18 178.87 335.29 190.31 333.18 Z" />
<path fill="#ffffff" opacity="1.00" d=" M 575.40 384.63 C 583.76 382.82 593.14 385.77 598.62 392.42 C 603.82 398.33 605.95 406.70 604.15 414.37 C 602.61 423.23 595.59 429.51 589.32 435.33 C 577.71 446.72 566.30 458.31 554.66 469.67 C 548.38 476.08 538.71 479.45 529.92 476.97 C 521.34 475.37 514.19 468.39 511.95 460.03 C 509.28 451.18 512.48 441.34 518.89 434.91 C 532.22 421.55 545.67 408.33 558.96 394.94 C 563.56 390.34 568.79 385.79 575.40 384.63 Z" />
<path fill="#ffffff" opacity="1.00" d=" M 694.33 384.30 C 706.80 382.48 719.36 391.84 721.53 404.17 C 723.58 414.05 719.26 424.29 711.70 430.70 C 660.67 481.33 609.98 532.31 558.85 582.84 C 554.50 587.41 549.49 591.75 543.27 593.43 C 534.29 596.11 524.06 593.08 517.66 586.33 C 511.91 579.71 509.70 570.01 512.84 561.71 C 514.61 555.86 518.86 551.30 523.22 547.22 C 575.76 495.10 628.04 442.72 680.47 390.48 C 684.30 387.06 689.24 384.94 694.33 384.30 Z" />
<path fill="#ffffff" opacity="1.00" d=" M 693.38 595.57 C 700.83 594.32 708.71 596.61 714.32 601.67 C 746.49 633.83 778.74 665.93 810.85 698.16 C 816.32 703.66 822.65 708.68 826.23 715.72 C 830.72 724.85 829.26 736.74 822.00 744.03 C 813.23 753.96 796.48 754.05 787.20 744.80 C 769.39 726.95 751.48 709.19 733.74 691.26 C 728.78 686.55 723.88 681.78 719.27 676.73 C 707.98 665.69 696.93 654.40 685.74 643.26 C 682.25 639.75 678.12 636.70 675.64 632.33 C 672.21 625.65 671.36 617.43 674.44 610.46 C 677.45 602.56 685.11 596.84 693.38 595.57 Z" />
<path fill="#ffffff" opacity="1.00" d=" M 636.30 652.20 C 643.49 650.57 651.40 652.21 657.24 656.75 C 660.44 659.18 663.05 662.27 665.96 665.04 C 713.16 712.17 760.37 759.30 807.54 806.45 C 812.66 811.65 818.06 816.59 822.86 822.11 C 828.14 828.24 829.93 837.07 827.78 844.83 C 825.52 852.33 819.80 859.05 812.20 861.42 C 803.44 864.65 793.05 862.05 786.55 855.45 C 732.27 801.06 677.81 746.85 623.59 692.42 C 618.81 687.28 616.92 679.91 617.50 673.03 C 618.40 662.98 626.65 654.45 636.30 652.20 Z" />
</g>
<g id="#000000ff">
<path fill="#000000" opacity="1.00" d=" M 190.52 0.00 L 833.48 0.00 C 872.79 1.33 912.02 13.75 943.73 37.28 C 967.10 54.49 986.95 76.70 1000.61 102.37 C 1015.43 129.64 1023.01 160.57 1024.00 191.51 L 1024.00 834.46 C 1022.97 859.63 1018.36 884.90 1007.91 907.94 C 986.41 957.51 942.77 996.41 891.85 1013.91 C 873.13 1020.48 853.29 1023.48 833.50 1024.00 L 190.49 1024.00 C 172.10 1023.35 153.62 1020.86 136.08 1015.12 C 101.67 1004.16 70.55 983.33 46.87 956.11 C 22.64 928.47 6.57 893.60 2.03 857.08 C 1.10 849.23 0.44 841.35 0.00 833.46 L 0.00 194.51 C 0.61 168.83 5.36 143.13 15.37 119.41 C 33.68 74.94 69.54 38.12 113.25 18.18 C 137.39 6.83 163.95 1.22 190.52 0.00 M 373.41 157.72 C 353.12 161.19 335.89 177.69 331.42 197.76 C 329.14 206.66 329.81 215.91 329.73 225.00 C 329.75 426.00 329.69 627.00 329.75 828.00 C 329.72 837.71 335.01 847.83 344.19 851.75 C 352.57 855.90 363.26 854.30 370.44 848.43 C 376.03 843.23 379.77 835.73 379.47 827.98 C 379.41 623.97 379.49 419.96 379.42 215.95 C 378.49 210.91 382.78 206.08 387.96 206.81 C 484.63 206.82 581.31 206.82 677.99 206.82 C 688.86 206.68 698.87 198.47 701.11 187.83 C 705.13 173.29 693.20 157.10 678.05 156.85 C 580.37 156.74 482.68 156.86 385.00 156.81 C 381.12 156.75 377.23 156.99 373.41 157.72 M 418.39 237.44 C 409.55 238.20 402.16 244.75 398.70 252.67 C 395.54 260.64 396.61 270.22 401.92 277.04 C 406.43 284.01 414.94 287.33 423.02 287.28 C 532.68 287.31 642.35 287.29 752.01 287.30 C 762.14 287.41 771.70 280.27 774.73 270.65 C 777.40 262.12 775.71 252.07 769.69 245.33 C 765.23 240.89 759.35 237.57 752.97 237.22 C 656.65 237.19 560.32 237.21 464.00 237.19 C 448.80 237.37 433.57 236.87 418.39 237.44 M 270.35 253.43 C 258.98 255.47 249.80 266.26 250.19 277.93 C 250.09 433.97 250.10 590.02 250.16 746.06 C 249.72 759.26 261.70 771.47 274.98 770.93 C 288.69 771.54 300.00 758.32 299.63 745.07 C 299.57 589.69 299.62 434.32 299.59 278.94 C 299.60 273.40 298.04 267.77 294.70 263.30 C 289.34 255.66 279.51 251.71 270.35 253.43 M 418.36 318.41 C 407.79 319.72 398.61 328.59 397.04 339.14 C 396.18 345.06 397.28 351.37 400.59 356.42 C 404.83 363.93 413.38 368.55 421.94 368.57 C 544.63 368.57 667.31 368.59 790.00 368.55 C 792.79 368.61 795.81 368.20 798.33 369.71 C 802.58 371.95 803.65 378.14 800.90 381.94 C 799.35 384.02 797.42 385.77 795.59 387.60 C 710.12 473.12 624.63 558.63 539.11 644.11 C 529.56 654.18 523.88 668.06 524.09 681.98 C 523.80 694.73 528.23 707.74 536.63 717.37 C 581.18 761.48 625.47 805.86 669.83 850.18 C 674.51 854.50 678.24 859.97 683.98 863.03 C 692.86 868.49 705.35 867.23 712.63 859.65 C 721.64 851.38 723.09 836.20 715.35 826.60 C 709.07 818.95 701.58 812.40 694.75 805.26 C 656.14 766.86 617.94 728.05 579.26 689.73 C 577.24 687.54 574.48 685.35 574.69 682.04 C 575.58 679.97 577.19 678.34 578.73 676.74 C 661.60 594.27 744.20 511.54 827.08 429.08 C 833.60 422.58 840.84 416.52 845.43 408.39 C 857.90 387.49 856.00 359.15 841.05 339.99 C 831.45 327.24 816.11 318.56 800.03 318.13 C 687.69 318.12 575.34 318.14 463.00 318.13 C 448.13 318.31 433.22 317.75 418.36 318.41 M 190.31 333.18 C 178.87 335.29 169.71 346.18 170.20 357.93 C 170.12 462.64 170.17 567.35 170.16 672.06 C 169.97 679.54 173.16 687.24 179.15 691.86 C 185.91 697.20 195.52 698.78 203.58 695.67 C 213.56 692.03 220.23 681.61 219.65 671.05 C 219.68 566.68 219.71 462.30 219.67 357.93 C 219.56 350.06 215.82 342.24 209.46 337.55 C 204.11 333.37 196.93 331.92 190.31 333.18 M 575.40 384.63 C 568.79 385.79 563.56 390.34 558.96 394.94 C 545.67 408.33 532.22 421.55 518.89 434.91 C 512.48 441.34 509.28 451.18 511.95 460.03 C 514.19 468.39 521.34 475.37 529.92 476.97 C 538.71 479.45 548.38 476.08 554.66 469.67 C 566.30 458.31 577.71 446.72 589.32 435.33 C 595.59 429.51 602.61 423.23 604.15 414.37 C 605.95 406.70 603.82 398.33 598.62 392.42 C 593.14 385.77 583.76 382.82 575.40 384.63 M 694.33 384.30 C 689.24 384.94 684.30 387.06 680.47 390.48 C 628.04 442.72 575.76 495.10 523.22 547.22 C 518.86 551.30 514.61 555.86 512.84 561.71 C 509.70 570.01 511.91 579.71 517.66 586.33 C 524.06 593.08 534.29 596.11 543.27 593.43 C 549.49 591.75 554.50 587.41 558.85 582.84 C 609.98 532.31 660.67 481.33 711.70 430.70 C 719.26 424.29 723.58 414.05 721.53 404.17 C 719.36 391.84 706.80 382.48 694.33 384.30 M 693.38 595.57 C 685.11 596.84 677.45 602.56 674.44 610.46 C 671.36 617.43 672.21 625.65 675.64 632.33 C 678.12 636.70 682.25 639.75 685.74 643.26 C 696.93 654.40 707.98 665.69 719.27 676.73 C 723.88 681.78 728.78 686.55 733.74 691.26 C 751.48 709.19 769.39 726.95 787.20 744.80 C 796.48 754.05 813.23 753.96 822.00 744.03 C 829.26 736.74 830.72 724.85 826.23 715.72 C 822.65 708.68 816.32 703.66 810.85 698.16 C 778.74 665.93 746.49 633.83 714.32 601.67 C 708.71 596.61 700.83 594.32 693.38 595.57 M 636.30 652.20 C 626.65 654.45 618.40 662.98 617.50 673.03 C 616.92 679.91 618.81 687.28 623.59 692.42 C 677.81 746.85 732.27 801.06 786.55 855.45 C 793.05 862.05 803.44 864.65 812.20 861.42 C 819.80 859.05 825.52 852.33 827.78 844.83 C 829.93 837.07 828.14 828.24 822.86 822.11 C 818.06 816.59 812.66 811.65 807.54 806.45 C 760.37 759.30 713.16 712.17 665.96 665.04 C 663.05 662.27 660.44 659.18 657.24 656.75 C 651.40 652.21 643.49 650.57 636.30 652.20 Z" />
</g>
</svg>
